<?xml version="1.0" standalone="no"?>
<!DOCTYPE svg PUBLIC "-//W3C//DTD SVG 20010904//EN"
 "http://www.w3.org/TR/2001/REC-SVG-20010904/DTD/svg10.dtd">
<svg version="1.0" xmlns="http://www.w3.org/2000/svg"
 width="256.000000pt" height="256.000000pt" viewBox="0 0 256.000000 256.000000"
 preserveAspectRatio="xMidYMid meet">

<g transform="translate(0.000000,256.000000) scale(0.100000,-0.100000)"
fill="#000000" stroke="none">
<path d="M1219 2285 c-124 -65 -313 -101 -474 -90 -85 5 -234 30 -311 51 -20
5 -23 -1 -39 -83 -23 -116 -32 -439 -15 -571 10 -86 41 -254 57 -306 4 -15 91
67 424 400 l419 419 0 102 c0 57 -3 103 -7 103 -5 -1 -29 -12 -54 -25z"/>
<path d="M1389 2223 l-24 -28 28 24 c25 23 32 31 24 31 -2 0 -14 -12 -28 -27z"/>
<path d="M1130 773 c-74 -76 -109 -113 -77 -83 42 40 57 50 57 36 0 -15 3 -16
14 -7 15 13 26 -4 26 -41 0 -17 3 -18 14 -8 12 9 16 5 22 -24 3 -20 10 -36 15
-36 5 0 9 -7 9 -16 0 -8 4 -13 9 -10 5 3 12 -10 15 -29 4 -20 11 -33 16 -30 5
3 11 -16 13 -42 2 -27 4 59 5 190 1 130 1 237 -1 237 -1 0 -63 -62 -137 -137z"/>
</g>
</svg>
